Coordinates
datacolumns 6
datarows 138
range 0 1.37
inDegrees=yes
Units are S.I. units (second, meters, Newtons, ...)
If the header above contains a line with 'inDegrees', this indicates whether rotational values are in degrees (yes) or radians (no).
endheader
time	foot_tx	hip_flexion_r	knee_angle_r	ankle_angle_r	lumbar
0	0.20206796	64.61047111	-73.16624292	1.55394412	-14.36771853
0.01	0.20204703	64.93211755	-73.16880101	1.59387458	-14.46451072
0.02	0.20203172	65.2561809	-73.16864315	1.63608243	-14.57598886
0.03	0.20201382	65.57423794	-73.16667776	1.68311128	-14.71107545
0.04	0.20199473	65.88535616	-73.16241848	1.73494877	-14.86942313
0.05	0.20197984	66.15673813	-73.1534163	1.79266938	-15.09006241
0.06	0.20194112	66.48710065	-73.15301454	1.85668096	-15.25549926
0.07	0.20194195	66.77587866	-73.14129584	1.91857241	-15.49078768
0.08	0.20193377	67.15116012	-73.13932724	1.9811329	-15.64529354
0.09	0.20192999	67.54570645	-73.14141827	2.04506749	-15.80330395
0.1	0.20192858	67.99111096	-73.14889587	2.10831909	-15.92934616
0.11	0.20193041	68.48453621	-73.1615546	2.17169113	-16.02552217
0.12	0.20193059	69.01563958	-73.17854544	2.23699306	-16.10373394
0.13	0.20192677	69.57593959	-73.19955994	2.3058302	-16.17273885
0.14	0.2019185	70.15943204	-73.22354676	2.37851748	-16.24012072
0.15	0.20190433	70.76326919	-73.24912983	2.45458974	-16.31125111
0.16	0.20189038	71.3893395	-73.27485973	2.53275029	-16.38475101
0.17	0.20187236	72.03951608	-73.30097191	2.61340179	-16.45913258
0.18	0.20184952	72.71508296	-73.32783011	2.69712823	-16.53232019
0.19	0.20181422	73.4182018	-73.35443584	2.78381365	-16.60318732
0.2	0.20177322	74.15276028	-73.38106607	2.87311644	-16.66473834
0.21	0.20172428	74.91423713	-73.4040611	2.96386363	-16.72362052
0.22	0.20166571	75.70566406	-73.42392563	3.05717167	-16.77249946
0.23	0.20159498	76.52650952	-73.4388397	3.15324911	-16.80871277
0.24	0.20151494	77.38144433	-73.44863632	3.25258937	-16.8222344
0.25	0.20142604	78.27023655	-73.4534727	3.35561692	-16.81076302
0.26	0.20133203	79.19308418	-73.45439534	3.46277599	-16.77176983
0.27	0.20121351	80.14838779	-73.45840897	3.5795396	-16.70435709
0.28	0.20112663	81.13109123	-73.45193192	3.69479829	-16.61266944
0.29	0.20102417	82.14963552	-73.44978116	3.81994915	-16.47947515
0.3	0.20092443	83.20149422	-73.44599524	3.95170145	-16.30354657
0.31	0.20083059	84.28775406	-73.44052849	4.0914609	-16.07821695
0.32	0.20073753	85.41115676	-73.43754781	4.24312586	-15.79530916
0.33	0.20065049	86.56219488	-73.43672214	4.40807791	-15.46511741
0.34	0.20056161	87.74434085	-73.44289625	4.59027236	-15.08153311
0.35	0.20046572	88.95489833	-73.45776629	4.79209325	-14.64641881
0.36	0.20037343	90.18505308	-73.47874503	5.01307033	-14.16934736
0.37	0.20027185	91.43637019	-73.50947009	5.25800886	-13.64268123
0.38	0.20016725	92.70091568	-73.54686144	5.52675376	-13.0724763
0.39	0.20006549	93.96638641	-73.58849134	5.81921546	-12.47083615
0.4	0.19997542	95.21986957	-73.62989431	6.133271	-11.85138408
0.41	0.19990716	96.44608193	-73.66549033	6.46575095	-11.23043069
0.42	0.19986794	97.62599127	-73.69038468	6.81395334	-10.62772653
0.43	0.19986822	98.73892809	-73.69935662	7.17459543	-10.06355691
0.44	0.19991102	99.76223803	-73.69098059	7.54673901	-9.55875902
0.45	0.19999811	100.6777426	-73.66531444	7.92982201	-9.12619484
0.46	0.20013249	101.4687071	-73.62581946	8.32464515	-8.77623484
0.47	0.20030567	102.1282606	-73.57736171	8.73284823	-8.50495971
0.48	0.20050704	102.652173	-73.5252255	9.15646117	-8.30501397
0.49	0.20072406	103.0356059	-73.47635454	9.5986774	-8.17139103
0.5	0.20094365	103.2859859	-73.43207044	10.0591473	-8.08321321
0.51	0.2011583	103.405716	-73.39319999	10.53708847	-8.02948274
0.52	0.20136696	103.4054434	-73.3570629	11.02929303	-7.98926208
0.53	0.20157739	103.2787449	-73.31700148	11.53036675	-7.9718987
0.54	0.20179068	103.0516194	-73.26484439	12.03415015	-7.93802163
0.55	0.20201201	102.7266531	-73.18912936	12.53334356	-7.88785359
0.56	0.20224598	102.3125613	-73.07750918	13.02025049	-7.8133646
0.57	0.20249409	101.8195185	-72.91842922	13.48717102	-7.70809562
0.58	0.20275748	101.2538633	-72.70173496	13.92852357	-7.57090199
0.59	0.20303414	100.6222799	-72.41868285	14.33932203	-7.40007394
0.6	0.20332012	99.93150998	-72.06150483	14.71552733	-7.19356359
0.61	0.20361005	99.18518399	-71.62312806	15.05336057	-6.95396654
0.62	0.20390231	98.38671864	-71.09784951	15.34862405	-6.6850167
0.63	0.20418765	97.53477604	-70.48289504	15.59871469	-6.39797368
0.64	0.20447957	96.61899744	-69.77526463	15.79975915	-6.11427171
0.65	0.20477671	95.6366341	-68.97312957	15.94971133	-5.84315566
0.66	0.2050832	94.57818314	-68.07589698	16.04751718	-5.59947486
0.67	0.20540394	93.43951939	-67.08377107	16.09285415	-5.38812104
0.68	0.20574632	92.2184866	-65.99795816	16.08566534	-5.2090985
0.69	0.20611042	90.90729234	-64.82384103	16.02938293	-5.06922659
0.7	0.20650047	89.50685273	-63.56635438	15.92629091	-4.96378809
0.71	0.20691029	88.02091752	-62.22938475	15.77915905	-4.88272178
0.72	0.20732586	86.4484385	-60.81852587	15.59232729	-4.82680938
0.73	0.20772971	84.79058323	-59.33824667	15.36941155	-4.79218733
0.74	0.20811675	83.05197379	-57.79133413	15.11203452	-4.77376854
0.75	0.20848591	81.23671849	-56.18005702	14.82118562	-4.7662449
0.76	0.20884326	79.35081166	-54.50615921	14.49719781	-4.76214059
0.77	0.20919373	77.39559642	-52.77266555	14.14159552	-4.7595829
0.78	0.20954203	75.3699088	-50.98413788	13.75684336	-4.75979389
0.79	0.20989126	73.27444656	-49.14675915	13.3463796	-4.76230369
0.8	0.21024423	71.10730023	-47.26723786	12.91423796	-4.77014258
0.81	0.21060077	68.86793136	-45.35224933	12.46468716	-4.78524507
0.82	0.21096248	66.56226616	-43.40776814	12.00097144	-4.80158651
0.83	0.21132848	64.19212595	-41.44119785	11.52759699	-4.82048515
0.84	0.21169973	61.76740447	-39.4590803	11.04749308	-4.83317245
0.85	0.21207858	59.29356264	-37.46954494	10.56451554	-4.83939765
0.86	0.21246492	56.77375084	-35.48088968	10.08283713	-4.84264807
0.87	0.21286039	54.22473406	-33.50116524	9.60529868	-4.83085731
0.88	0.2132615	51.65598074	-31.53960031	9.13606934	-4.80331667
0.89	0.21366489	49.08936501	-29.60581357	8.67862871	-4.7440017
0.9	0.2140668	46.54088239	-27.71041589	8.23698504	-4.64954966
0.91	0.21446447	44.02795948	-25.86311911	7.81423642	-4.51570104
0.92	0.21485075	41.58341203	-24.07540544	7.41387878	-4.31610727
0.93	0.21522757	39.21476557	-22.35587047	7.0372736	-4.0684282
0.94	0.21558127	36.95730388	-20.7142098	6.68695487	-3.74329198
0.95	0.21591729	34.81841155	-19.16094196	6.36449856	-3.35912031
0.96	0.21622113	32.81820907	-17.70355874	6.07239634	-2.90388828
0.97	0.21649525	30.95898266	-16.3471945	5.81075723	-2.39486222
0.98	0.21673405	29.24322998	-15.09192666	5.57902096	-1.83696818
0.99	0.21692423	27.66009765	-13.93499475	5.37672229	-1.24746976
1	0.21707076	26.20637967	-12.86834909	5.19951296	-0.62828814
1.01	0.21715593	24.86497739	-11.88624036	5.04695032	0.00219469
1.02	0.2171908	23.62969826	-10.97625196	4.91281193	0.64318016
1.03	0.21715351	22.48611153	-10.13087379	4.79651168	1.2861949
1.04	0.21704502	21.42542872	-9.33802559	4.69323217	1.92996989
1.05	0.21686258	20.43905437	-8.58756743	4.59929958	2.57278507
1.06	0.21660549	19.51536184	-7.87195673	4.51214589	3.2062961
1.07	0.21627529	18.64852333	-7.1852937	4.42911713	3.82727036
1.08	0.21587256	17.83099724	-6.52389075	4.34887936	4.42899043
1.09	0.21539878	17.05974838	-5.88629116	4.27097662	5.00955009
1.1	0.21485814	16.32836436	-5.2746198	4.19743906	5.56311262
1.11	0.21425925	15.63761965	-4.68940611	4.1289715	6.09251186
1.12	0.2136316	14.98655252	-4.14132784	4.07103699	6.59545216
1.13	0.21301627	14.37709156	-3.64085592	4.02809193	7.07190986
1.14	0.21246753	13.81474901	-3.20116765	4.00500666	7.52325249
1.15	0.21204294	13.30599989	-2.83949648	4.00807328	7.94960842
1.16	0.21178716	12.87238238	-2.57263895	4.04289021	8.37020805
1.17	0.21173309	12.48103528	-2.40513963	4.11232199	8.74330567
1.18	0.21188438	12.13802301	-2.34005257	4.21747432	9.07777809
1.19	0.21222368	11.87425539	-2.37903713	4.35736127	9.41212229
1.2	0.21271711	11.64375782	-2.49635085	4.52342833	9.70986076
1.21	0.21331265	11.44607756	-2.67360633	4.70808464	9.98023186
1.22	0.21396151	11.25772886	-2.88294409	4.90107443	10.21525505
1.23	0.21461957	11.05017037	-3.09876396	5.09314102	10.39400033
1.24	0.21525971	10.8533224	-3.30552634	5.27567781	10.56096425
1.25	0.21586312	10.65689146	-3.49056396	5.44396129	10.70880692
1.26	0.21642439	10.45585164	-3.64986232	5.5965404	10.83093276
1.27	0.21694937	10.20646767	-3.76552101	5.7277852	10.88658492
1.28	0.21743474	9.97514834	-3.85722685	5.84334143	10.94273017
1.29	0.21788921	9.74775913	-3.92121338	5.94242162	10.98820626
1.3	0.21830746	9.52646729	-3.96288739	6.02831537	11.02636349
1.31	0.21868647	9.31878584	-3.99195202	6.10594501	11.06251985
1.32	0.21902856	9.12442457	-4.00869434	6.17578693	11.10146525
1.33	0.21932951	8.94720284	-4.02087493	6.24177953	11.14558679
1.34	0.21958972	8.78813366	-4.03225896	6.3057216	11.19636433
1.35	0.21980919	8.64802965	-4.04610747	6.36905698	11.25450361
1.36	0.21999225	8.52661142	-4.06422939	6.43228016	11.31972909
1.37	0.22013416	8.43234336	-4.09194984	6.49737525	11.39704167
